<svg xmlns="http://www.w3.org/2000/svg" viewBox="0 0 330 72" width="330" height="72" role="img" aria-label="CONTAGEX — Contabilitate si Expertiza">
  <defs>
    <linearGradient id="lgNavy" x1="0" y1="0" x2="1" y2="1">
      <stop offset="0" stop-color="#143a63"/>
      <stop offset="1" stop-color="#0a2240"/>
    </linearGradient>
    <linearGradient id="lgGold" x1="0" y1="1" x2="1" y2="0">
      <stop offset="0" stop-color="#c79a3a"/>
      <stop offset="1" stop-color="#e9c46a"/>
    </linearGradient>
  </defs>

  <!-- emblem -->
  <g transform="translate(6,8)">
    <rect x="0" y="0" width="56" height="56" rx="13" fill="url(#lgNavy)"/>
    <rect x="9.6" y="43.3" width="38.5" height="2.1" rx="1.05" fill="#e0b850" fill-opacity="0.35"/>
    <g fill="url(#lgGold)">
      <rect x="10.5" y="32.4" width="7" height="10.5" rx="2.2" fill-opacity="0.45"/>
      <rect x="20.1" y="26.3" width="7" height="16.6" rx="2.2" fill-opacity="0.65"/>
      <rect x="29.8" y="20.1" width="7" height="22.8" rx="2.2" fill-opacity="0.82"/>
      <rect x="39.4" y="11.4" width="7" height="31.5" rx="2.2"/>
    </g>
    <g fill="none" stroke="#ffffff" stroke-width="2.3" stroke-linecap="round" stroke-linejoin="round">
      <path d="M12.3 35.9 L21 29.8 L30.6 23.6 L43.8 13.1"/>
      <path d="M37.6 12.7 L44.2 12.7 L44.2 19.3"/>
    </g>
  </g>

  <!-- wordmark -->
  <text x="76" y="38" font-family="'Sora','Segoe UI',Arial,sans-serif" font-size="30" font-weight="800" letter-spacing="0.5" fill="#0a2240">CONTAGEX</text>
  <text x="77" y="57" font-family="'Inter','Segoe UI',Arial,sans-serif" font-size="11.5" font-weight="600" letter-spacing="2.4" fill="#c79a3a">CONTABILITATE &#183; EXPERTIZĂ</text>
</svg>
